<svg xmlns="http://www.w3.org/2000/svg" xmlns:xlink="http://www.w3.org/1999/xlink" viewBox="-301 -206 802 1271"><style>.label{font-size:64px;font-family:Calibri,sans-serif;stroke-width:0;stroke:#000;fill:#1a2127}</style><defs><radialGradient id="radgrad-pad1" cx="250" cy="0" r="80" fr="35" fx="0" fy="0" gradientUnits="userSpaceOnUse" spreadMethod="pad"><stop offset="0%" stop-color="#DA0025"/><stop offset="50%" stop-color="#FFC600"/><stop offset="100%" stop-color="#0052AB"/></radialGradient><radialGradient id="radgrad-pad2" cx="0" cy="0" r="35" fr="80" fx="250" fy="0" gradientUnits="userSpaceOnUse" spreadMethod="pad"><stop offset="0%" stop-color="#DA0025"/><stop offset="50%" stop-color="#FFC600"/><stop offset="100%" stop-color="#0052AB"/></radialGradient><radialGradient id="radgrad-pad3" cx="0" cy="0" r="35" fr="80" fx="250" fy="0" gradientUnits="userSpaceOnUse" spreadMethod="pad"><stop offset="0%" stop-color="#0052AB"/><stop offset="50%" stop-color="#FFC600"/><stop offset="100%" stop-color="#DA0025"/></radialGradient><rect id="filled-rect" width="800" height="400" x="-300" y="-200" stroke="gray" stroke-width="2"/></defs><use fill="url(#radgrad-pad1)" href="#filled-rect"/><g id="points" fill="none" stroke="#1a2127" stroke-width="2"><circle cx="0" cy="0" r="35"/><circle cx="0" cy="0" r="4" fill="#1a2127"/><line x1="0" x2="18.386" y1="0" y2="-29.781"/><circle cx="250" cy="0" r="80"/><circle cx="250" cy="0" r="4" fill="#1a2127"/><line x1="250" x2="292.012" y1="0" y2="-68.05"/></g><text x="-40" y="40" class="label">c₀</text><text x="14" y="20" class="label">r₀</text><text x="217" y="40" class="label">c₁</text><text x="277" y="0" class="label">r₁</text><g transform="translate(0, 430)"><use fill="url(#radgrad-pad2)" href="#filled-rect"/><use href="#points"/><text x="-40" y="40" class="label">c₁</text><text x="14" y="20" class="label">r₁</text><text x="217" y="40" class="label">c₀</text><text x="277" y="0" class="label">r₀</text></g><g transform="translate(0, 860)"><use fill="url(#radgrad-pad3)" href="#filled-rect"/><use href="#points"/><text x="-40" y="40" class="label">c₁</text><text x="14" y="20" class="label">r₁</text><text x="217" y="40" class="label">c₀</text><text x="277" y="0" class="label">r₀</text></g></svg>